<svg width="30" height="30" viewBox="0 0 30 30" fill="none" xmlns="http://www.w3.org/2000/svg">
<path d="M3.75 30C2.71875 30 1.83625 29.7065 1.1025 29.1195C0.3675 28.5315 0 27.825 0 27V9C0 8.175 0.3675 7.469 1.1025 6.882C1.83625 6.294 2.71875 6 3.75 6H7.5C7.5 4.35 8.23438 2.9375 9.70312 1.7625C11.1719 0.5875 12.9375 0 15 0C17.0625 0 18.8281 0.5875 20.2969 1.7625C21.7656 2.9375 22.5 4.35 22.5 6H26.25C27.2812 6 28.1644 6.294 28.8994 6.882C29.6331 7.469 30 8.175 30 9V27C30 27.825 29.6331 28.5315 28.8994 29.1195C28.1644 29.7065 27.2812 30 26.25 30H3.75ZM9.375 13.5C9.90625 13.5 10.3519 13.356 10.7119 13.068C11.0706 12.781 11.25 12.425 11.25 12V9H7.5V12C7.5 12.425 7.68 12.781 8.04 13.068C8.39875 13.356 8.84375 13.5 9.375 13.5ZM11.25 6H18.75C18.75 5.175 18.3831 4.469 17.6494 3.882C16.9144 3.294 16.0312 3 15 3C13.9688 3 13.0863 3.294 12.3525 3.882C11.6175 4.469 11.25 5.175 11.25 6ZM20.625 13.5C21.1562 13.5 21.6019 13.356 21.9619 13.068C22.3206 12.781 22.5 12.425 22.5 12V9H18.75V12C18.75 12.425 18.93 12.781 19.29 13.068C19.6488 13.356 20.0938 13.5 20.625 13.5Z" fill="black"/>
</svg>
