<svg width="21" height="20" viewBox="0 0 21 20" fill="none" xmlns="http://www.w3.org/2000/svg">
<path d="M11 8L9.6 6.6L11.175 5H7V3H11.175L9.575 1.4L11 0L15 4L11 8ZM6 20C5.45 20 4.97933 19.8043 4.588 19.413C4.196 19.021 4 18.55 4 18C4 17.45 4.196 16.979 4.588 16.587C4.97933 16.1957 5.45 16 6 16C6.55 16 7.02067 16.1957 7.412 16.587C7.804 16.979 8 17.45 8 18C8 18.55 7.804 19.021 7.412 19.413C7.02067 19.8043 6.55 20 6 20ZM16 20C15.45 20 14.9793 19.8043 14.588 19.413C14.196 19.021 14 18.55 14 18C14 17.45 14.196 16.979 14.588 16.587C14.9793 16.1957 15.45 16 16 16C16.55 16 17.021 16.1957 17.413 16.587C17.8043 16.979 18 17.45 18 18C18 18.55 17.8043 19.021 17.413 19.413C17.021 19.8043 16.55 20 16 20ZM0 2V0H3.275L7.525 9H14.525L18.425 2H20.7L16.3 9.95C16.1167 10.2833 15.8707 10.5417 15.562 10.725C15.254 10.9083 14.9167 11 14.55 11H7.1L6 13H18V15H6C5.25 15 4.679 14.675 4.287 14.025C3.89567 13.375 3.88333 12.7167 4.25 12.05L5.6 9.6L2 2H0Z" fill="white"/>
</svg>
