<svg width="30" height="16" viewBox="0 0 30 16" fill="none" xmlns="http://www.w3.org/2000/svg">
<path fill-rule="evenodd" clip-rule="evenodd" d="M3.75 0C2.75544 0 1.80161 0.38901 1.09835 1.08145C0.395088 1.77389 0 2.71305 0 3.69231L0 12.3077C0 13.287 0.395088 14.2261 1.09835 14.9185C1.80161 15.611 2.75544 16 3.75 16H26.25C27.2446 16 28.1984 15.611 28.9017 14.9185C29.6049 14.2261 30 13.287 30 12.3077V3.69231C30 2.71305 29.6049 1.77389 28.9017 1.08145C28.1984 0.38901 27.2446 0 26.25 0H3.75ZM11.25 2.46154H8.75V8.61538C8.75 8.94181 8.6183 9.25486 8.38388 9.48567C8.14946 9.71648 7.83152 9.84615 7.5 9.84615C7.16848 9.84615 6.85054 9.71648 6.61612 9.48567C6.3817 9.25486 6.25 8.94181 6.25 8.61538V2.46154H3.75C3.41848 2.46154 3.10054 2.59121 2.86612 2.82202C2.6317 3.05284 2.5 3.36589 2.5 3.69231V12.3077C2.5 12.6341 2.6317 12.9472 2.86612 13.178C3.10054 13.4088 3.41848 13.5385 3.75 13.5385H26.25C26.5815 13.5385 26.8995 13.4088 27.1339 13.178C27.3683 12.9472 27.5 12.6341 27.5 12.3077V3.69231C27.5 3.36589 27.3683 3.05284 27.1339 2.82202C26.8995 2.59121 26.5815 2.46154 26.25 2.46154H23.75V6.15385C23.75 6.48027 23.6183 6.79332 23.3839 7.02413C23.1495 7.25495 22.8315 7.38462 22.5 7.38462C22.1685 7.38462 21.8505 7.25495 21.6161 7.02413C21.3817 6.79332 21.25 6.48027 21.25 6.15385V2.46154H18.75V8.61538C18.75 8.94181 18.6183 9.25486 18.3839 9.48567C18.1495 9.71648 17.8315 9.84615 17.5 9.84615C17.1685 9.84615 16.8505 9.71648 16.6161 9.48567C16.3817 9.25486 16.25 8.94181 16.25 8.61538V2.46154H13.75V6.15385C13.75 6.48027 13.6183 6.79332 13.3839 7.02413C13.1495 7.25495 12.8315 7.38462 12.5 7.38462C12.1685 7.38462 11.8505 7.25495 11.6161 7.02413C11.3817 6.79332 11.25 6.48027 11.25 6.15385V2.46154Z" fill="#575757"/>
</svg>
