<svg width="33" height="23" viewBox="0 0 33 23" fill="none" xmlns="http://www.w3.org/2000/svg">
<path d="M0 0V2.02005H19.1904V17.1704H12.9725C12.5227 15.4344 10.9603 14.1403 9.09021 14.1403C7.22009 14.1403 5.65771 15.4344 5.20793 17.1704H4.04009V12.1203H2.02005V19.1904H5.20793C5.65771 20.9264 7.22009 22.2205 9.09021 22.2205C10.9603 22.2205 12.5227 20.9264 12.9725 19.1904H21.3683C21.8181 20.9264 23.3805 22.2205 25.2506 22.2205C27.1207 22.2205 28.6831 20.9264 29.1329 19.1904H32.3207V10.9524L32.2576 10.7946L30.2376 4.73448L30.0166 4.04009H21.2105V0H0ZM1.01002 4.04009V6.06014H10.1002V4.04009H1.01002ZM21.2105 6.06014H28.5647L30.3007 11.2365V17.1704H29.1329C28.6831 15.4344 27.1207 14.1403 25.2506 14.1403C23.3805 14.1403 21.8181 15.4344 21.3683 17.1704H21.2105V6.06014ZM2.02005 8.08018V10.1002H8.08018V8.08018H2.02005ZM9.09021 16.1604C10.2186 16.1604 11.1103 17.052 11.1103 18.1804C11.1103 19.3088 10.2186 20.2005 9.09021 20.2005C7.96182 20.2005 7.07016 19.3088 7.07016 18.1804C7.07016 17.052 7.96182 16.1604 9.09021 16.1604ZM25.2506 16.1604C26.379 16.1604 27.2706 17.052 27.2706 18.1804C27.2706 19.3088 26.379 20.2005 25.2506 20.2005C24.1222 20.2005 23.2305 19.3088 23.2305 18.1804C23.2305 17.052 24.1222 16.1604 25.2506 16.1604Z" fill="#575757"/>
</svg>
