<svg width="22" height="20" viewBox="0 0 22 20" fill="none" xmlns="http://www.w3.org/2000/svg">
<path d="M1.06118 3.33333H20.1623C20.799 3.33333 21.2235 2.66667 21.2235 1.66667C21.2235 0.666667 20.799 0 20.1623 0H1.06118C0.42447 0 0 0.666667 0 1.66667C0 2.66667 0.42447 3.33333 1.06118 3.33333ZM11.6729 16.6667H1.06118C0.42447 16.6667 0 17.3333 0 18.3333C0 19.3333 0.42447 20 1.06118 20H11.6729C12.3096 20 12.7341 19.3333 12.7341 18.3333C12.7341 17.3333 12.3096 16.6667 11.6729 16.6667ZM20.1623 8.33333H1.06118C0.42447 8.33333 0 9 0 10C0 11 0.42447 11.6667 1.06118 11.6667H20.1623C20.799 11.6667 21.2235 11 21.2235 10C21.2235 9 20.799 8.33333 20.1623 8.33333Z" fill="#BBBBBB"/>
</svg>
