<svg width="38" height="38" viewBox="0 0 38 38" fill="none" xmlns="http://www.w3.org/2000/svg">
<path d="M19.0002 9.50016V33.2502H15.8335V25.3335C13.3139 25.3335 10.8976 24.3326 9.11597 22.551C7.33437 20.7694 6.33348 18.3531 6.33348 15.8335C6.33348 13.3139 7.33437 10.8976 9.11597 9.11598C10.8976 7.33439 13.3139 6.3335 15.8335 6.3335H31.6668V9.50016H26.9168V33.2502H23.7502V9.50016H19.0002ZM15.8335 9.50016C14.1538 9.50016 12.5429 10.1674 11.3551 11.3552C10.1674 12.5429 9.50015 14.1538 9.50015 15.8335C9.50015 17.5132 10.1674 19.1241 11.3551 20.3118C12.5429 21.4996 14.1538 22.1668 15.8335 22.1668V9.50016Z" fill="#BBBBBB"/>
</svg>
