<svg width="21" height="21" viewBox="0 0 21 21" fill="none" xmlns="http://www.w3.org/2000/svg">
<path d="M19.0723 17.6777L15.7336 14.3391C16.8119 12.9629 17.3956 11.2639 17.3906 9.51563C17.3906 7.9581 16.9288 6.43555 16.0635 5.14051C15.1981 3.84548 13.9682 2.83612 12.5293 2.24008C11.0903 1.64404 9.50689 1.48809 7.97929 1.79194C6.45169 2.0958 5.0485 2.84582 3.94716 3.94716C2.84582 5.0485 2.0958 6.45169 1.79194 7.97929C1.48809 9.50689 1.64404 11.0903 2.24008 12.5293C2.83612 13.9682 3.84548 15.1981 5.14051 16.0635C6.43555 16.9288 7.9581 17.3906 9.51563 17.3906C11.2639 17.3956 12.9629 16.8119 14.3391 15.7336L17.6777 19.0723C17.8635 19.2556 18.114 19.3584 18.375 19.3584C18.636 19.3584 18.8865 19.2556 19.0723 19.0723C19.164 18.9808 19.2369 18.8721 19.2865 18.7525C19.3362 18.6328 19.3618 18.5046 19.3618 18.375C19.3618 18.2454 19.3362 18.1172 19.2865 17.9975C19.2369 17.8779 19.164 17.7692 19.0723 17.6777ZM3.60938 9.51563C3.60938 8.34748 3.95577 7.20557 4.60476 6.23429C5.25375 5.26301 6.17618 4.506 7.25541 4.05896C8.33463 3.61193 9.52218 3.49497 10.6679 3.72287C11.8136 3.95076 12.866 4.51327 13.692 5.33928C14.518 6.16528 15.0805 7.21768 15.3084 8.36338C15.5363 9.50908 15.4193 10.6966 14.9723 11.7759C14.5253 12.8551 13.7682 13.7775 12.797 14.4265C11.8257 15.0755 10.6838 15.4219 9.51563 15.4219C7.94986 15.4197 6.44884 14.7967 5.34168 13.6896C4.23451 12.5824 3.61155 11.0814 3.60938 9.51563Z" fill="#BBBBBB"/>
</svg>
