<svg width="21" height="27" viewBox="0 0 21 27" fill="none" xmlns="http://www.w3.org/2000/svg">
<path d="M3.24992 26.7916C2.58534 26.7916 2.01661 26.5552 1.54375 26.0823C1.07009 25.6086 0.833252 25.0395 0.833252 24.3749V11.0833C0.833252 10.4187 1.07009 9.84954 1.54375 9.37588C2.01661 8.90302 2.58534 8.66658 3.24992 8.66658H6.87492V11.0833H3.24992V24.3749H17.7499V11.0833H14.1249V8.66658H17.7499C18.4145 8.66658 18.9836 8.90302 19.4573 9.37588C19.9302 9.84954 20.1666 10.4187 20.1666 11.0833V24.3749C20.1666 25.0395 19.9302 25.6086 19.4573 26.0823C18.9836 26.5552 18.4145 26.7916 17.7499 26.7916H3.24992ZM9.29159 18.3333V4.83013L7.35825 6.76346L5.66659 5.04158L10.4999 0.208252L15.3333 5.04158L13.6416 6.76346L11.7083 4.83013V18.3333H9.29159Z" fill="#575757"/>
</svg>
